<?xml version="1.0" encoding="UTF-8"?>
<svg width="51px" height="57px" viewBox="0 0 51 57" version="1.1" xmlns="http://www.w3.org/2000/svg" xmlns:xlink="http://www.w3.org/1999/xlink">
    <!-- Generator: Sketch 51.3 (57544) - http://www.bohemiancoding.com/sketch -->
    <title>Artboard 8 Copy 5</title>
    <desc>Created with Sketch.</desc>
    <defs></defs>
    <g id="Artboard-8-Copy-5" stroke="none" stroke-width="1" fill="none" fill-rule="evenodd" stroke-linecap="round" stroke-linejoin="round">
        <g id="colored_liquidity-74" transform="translate(3.000000, 6.000000)" stroke="#322153" stroke-width="2.5">
            <path d="M20.5954564,37.0910145 C13.8639343,35.7927372 9,29.9010825 9,23.0455072 C9,16.1899319 13.8639343,10.2982772 20.5954564,9" id="Shape"></path>
            <path d="M26,9 C32.731522,10.2982772 37.5954564,16.1899319 37.5954564,23.0455072 C37.5954564,29.9010825 32.731522,35.7927372 26,37.0910145" id="Shape"></path>
            <path d="M36,37 L41.4492754,37" id="Shape"></path>
            <path d="M41,42.4492754 L41,37" id="Shape"></path>
            <path d="M40.98769,37.5943478 C40.5335837,38.112029 40.0794774,38.6138164 39.6253711,39.0997101 C32.6327204,46.0692199 21.9984227,47.8568346 13.1113543,43.5566897 C4.2242859,39.2565448 -0.973405899,29.8083781 0.15218273,20" id="Shape"></path>
            <path d="M9.76811594,9 L5,9" id="Shape"></path>
            <path d="M5,3 L5,8.44927536" id="Shape"></path>
            <path d="M5,8.28199512 C5.45410628,7.76431396 5.90821256,7.26252652 6.36231884,6.7766328 C13.3549696,-0.192876912 23.9892673,-1.98049165 32.8763357,2.31965326 C41.7634041,6.61979817 46.9610959,16.0679648 45.8355072,25.8763429" id="Shape"></path>
        </g>
        <g id="Group" transform="translate(23.000000, 22.000000)" stroke="#3399FF" stroke-width="2.5">
            <path d="M6.56637681,3.32727585 C2.29550725,0.268870049 0.483623188,3.23191353 0.769710145,4.87350773 C1.00130435,6.30394251 3.04478261,6.80800048 3.86217391,6.93060918 C9.72695652,7.76843527 5.81710145,14.6958266 0,10.3772758" id="Shape"></path>
            <path d="M3,0 L3.00681159,1.61434783" id="Shape"></path>
            <path d="M3,12 L3.00681159,14.132029" id="Shape"></path>
        </g>
    </g>
</svg>