<?xml version="1.0" encoding="UTF-8"?>
<svg width="51px" height="57px" viewBox="0 0 51 57" version="1.1" xmlns="http://www.w3.org/2000/svg" xmlns:xlink="http://www.w3.org/1999/xlink">
    <!-- Generator: Sketch 51.3 (57544) - http://www.bohemiancoding.com/sketch -->
    <title>Artboard 8</title>
    <desc>Created with Sketch.</desc>
    <defs></defs>
    <g id="Artboard-8" stroke="none" stroke-width="1" fill="none" fill-rule="evenodd">
        <g id="colored_stock_exchange-75" transform="translate(2.000000, 2.000000)">
            <g id="Group-9" transform="translate(9.985507, 32.260870)">
                <g id="Group-8"></g>
                <g id="Group-8-Copy" transform="translate(7.485507, 9.557971) rotate(-180.000000) translate(-7.485507, -9.557971) translate(4.985507, 6.057971)"></g>
            </g>
            <polygon id="Path-Copy" fill="#3399FF" points="12.0436723 40.1761643 15.8738617 45 19.9855072 39.8238357 16.1553179 35"></polygon>
            <path d="M9.11236006,38.119699 C9.15238375,38.0320749 9.20324289,37.9477169 9.26516564,37.8684856 L14.2578003,31.4803204 C14.5987234,31.0441031 15.1714718,30.8957619 15.665504,31.0733759 C15.8854088,31.1494879 16.0866231,31.2878146 16.2405457,31.4848429 L21.2277345,37.8686835 C21.6198853,38.3706554 21.5680529,39.0782581 21.13033,39.5185217 C21.0903063,39.6061457 21.0394472,39.6905038 20.9775244,39.7697351 L15.9848898,46.1579003 C15.6439666,46.5941176 15.0712183,46.7424588 14.577186,46.5648448 C14.3572812,46.4887327 14.156067,46.3504061 14.0021444,46.1533778 L9.01495556,39.7695372 C8.62280472,39.2675653 8.67463714,38.5599626 9.11236006,38.119699 Z M11.5700052,38.9792406 L14.9954867,43.364021 L18.6726849,38.6589801 L15.2472034,34.2741997 L11.5700052,38.9792406 Z" id="Combined-Shape" fill="#322153"></path>
            <path d="M0,9.98550725 L16.8985507,9.98550725" id="Shape" stroke="#322153" stroke-width="2.5" stroke-linecap="round" stroke-linejoin="round"></path>
            <path d="M4.34753623,5.63797101 L0,9.98550725" id="Shape" stroke="#322153" stroke-width="2.5" stroke-linecap="round" stroke-linejoin="round"></path>
            <path d="M4.34753623,14.3330435 L0,9.98550725" id="Shape" stroke="#322153" stroke-width="2.5" stroke-linecap="round" stroke-linejoin="round"></path>
            <path d="M46.0869565,43.0144928 L29.9565217,43.0144928" id="Shape" stroke="#322153" stroke-width="2.5" stroke-linecap="round" stroke-linejoin="round"></path>
            <path d="M42.5075362,47.3389855 L46.8550725,42.9914493" id="Shape" stroke="#322153" stroke-width="2.5" stroke-linecap="round" stroke-linejoin="round"></path>
            <path d="M42.5075362,38.643913 L46.8550725,42.9914493" id="Shape" stroke="#322153" stroke-width="2.5" stroke-linecap="round" stroke-linejoin="round"></path>
            <path d="M35.8249275,10.4002899 C31.0088406,6.95144928 28.9656522,10.2927536 29.2882609,12.143913 C29.5801449,13.7876812 31.846087,14.3330435 32.7755072,14.4482609 C39.3889855,15.3930435 34.98,23.2047826 28.4202899,18.3349275" id="Shape" stroke="#322153" stroke-width="2.5" stroke-linecap="round" stroke-linejoin="round"></path>
            <path d="M32.2301449,6.91304348 L32.2378261,8.73347826" id="Shape" stroke="#322153" stroke-width="2.5" stroke-linecap="round" stroke-linejoin="round"></path>
            <path d="M32.2301449,19.8711594 L32.2378261,22.2753623" id="Shape" stroke="#322153" stroke-width="2.5" stroke-linecap="round" stroke-linejoin="round"></path>
            <circle id="Oval" stroke="#322153" stroke-width="2.5" stroke-linecap="round" stroke-linejoin="round" cx="32.2608696" cy="14.5942029" r="14.5942029"></circle>
            <path d="M29.633913,35.3333333 C30.9044115,41.242278 28.4012078,47.3229635 23.338907,50.6249181 C18.2766062,53.9268727 11.7027836,53.766801 6.8071913,50.2223731 C1.91159895,46.6779452 -0.29268595,40.482633 1.2639003,34.6425275 C2.82048655,28.8024219 7.81582928,24.5260547 13.826087,23.8884058" id="Shape" stroke="#322153" stroke-width="2.5" stroke-linecap="round" stroke-linejoin="round"></path>
        </g>
    </g>
</svg>