<?xml version="1.0" encoding="UTF-8"?>
<svg width="51px" height="57px" viewBox="0 0 51 57" version="1.1" xmlns="http://www.w3.org/2000/svg" xmlns:xlink="http://www.w3.org/1999/xlink">
    <!-- Generator: Sketch 51.3 (57544) - http://www.bohemiancoding.com/sketch -->
    <title>Artboard 8 Copy</title>
    <desc>Created with Sketch.</desc>
    <defs></defs>
    <g id="Artboard-8-Copy" stroke="none" stroke-width="1" fill="none" fill-rule="evenodd">
        <g id="colored_bank-77" transform="translate(2.000000, 5.000000)">
            <path d="M0,41.8285714 L48,41.8285714" id="Shape" stroke="#322153" stroke-width="2.5" stroke-linecap="round" stroke-linejoin="round"></path>
            <path d="M44.5714286,14.4 L44.5714286,32.2285714" id="Shape" stroke="#322153" stroke-width="2.5" stroke-linecap="round" stroke-linejoin="round"></path>
            <path d="M35.6571429,14.4 L35.6571429,37.7142857" id="Shape" stroke="#322153" stroke-width="2.5" stroke-linecap="round" stroke-linejoin="round"></path>
            <path d="M12.3428571,14.4 L12.3428571,37.7142857" id="Shape" stroke="#322153" stroke-width="2.5" stroke-linecap="round" stroke-linejoin="round"></path>
            <path d="M3.42857143,32.2285714 L3.42857143,14.4" id="Shape" stroke="#322153" stroke-width="2.5" stroke-linecap="round" stroke-linejoin="round"></path>
            <path d="M44.5714286,37.7142857 L3.42857143,37.7142857" id="Shape" stroke="#322153" stroke-width="2.5" stroke-linecap="round" stroke-linejoin="round"></path>
            <path d="M46.8,13.9714286 L25.7142857,4.02171429 C24.8553591,3.5717631 23.8303552,3.5717631 22.9714286,4.02171429 L1.88571429,13.9714286" id="Shape-Copy" fill="#3399FF"></path>
            <path d="M4.8,13.7142857 L46.1897143,13.7142857 C46.8554913,13.6994436 47.4251524,13.2320753 47.5697877,12.5820292 C47.7144229,11.931983 47.3966731,11.2671659 46.8,10.9714286 L25.7142857,1.02171429 C24.8553591,0.571763105 23.8303552,0.571763105 22.9714286,1.02171429 L1.88571429,10.9714286 C1.28904116,11.2671659 0.971291347,11.931983 1.11592662,12.5820292 C1.26056189,13.2320753 1.83022295,13.6994436 2.496,13.7142857 L4.8,13.7142857" id="Shape" stroke="#322153" stroke-width="2.5" stroke-linecap="round" stroke-linejoin="round"></path>
            <path d="M27.4285714,36.3428571 L27.4285714,23.3142857 C27.4676983,22.4232342 27.1427771,21.5545836 26.5284745,20.9079493 C25.9141718,20.2613149 25.0633144,19.8923038 24.1714286,19.8857143 L24.0822857,19.8857143 C22.1734926,19.8815367 20.6125136,21.4059303 20.5714286,23.3142857 L20.5714286,32.2285714" id="Shape" stroke="#322153" stroke-width="2.5" stroke-linecap="round" stroke-linejoin="round"></path>
        </g>
    </g>
</svg>