<?xml version="1.0" encoding="UTF-8"?>
<svg width="51px" height="57px" viewBox="0 0 51 57" version="1.1" xmlns="http://www.w3.org/2000/svg" xmlns:xlink="http://www.w3.org/1999/xlink">
    <!-- Generator: Sketch 51.3 (57544) - http://www.bohemiancoding.com/sketch -->
    <title>Artboard 8 Copy 6</title>
    <desc>Created with Sketch.</desc>
    <defs></defs>
    <g id="Artboard-8-Copy-6" stroke="none" stroke-width="1" fill="none" fill-rule="evenodd">
        <g id="Group-11" transform="translate(3.000000, 2.000000)">
            <g id="colored_ethereum-87-copy" transform="translate(22.500000, 41.125000) rotate(-180.000000) translate(-22.500000, -41.125000) translate(5.854167, 29.375000)"></g>
            <polygon id="Combined-Shape" stroke="#322153" stroke-width="2.5" stroke-linecap="round" stroke-linejoin="round" points="39.2916667 53.5 6 53.5 22.6458333 30"></polygon>
            <path d="M0.207838359,19.2204697 C2.20561073,7.26215119 13.1392937,-1.0946189 25.202691,0.116546786 C37.2660882,1.32771247 46.32025,11.6912632 45.9008803,23.8080534 C45.4815105,35.9248436 35.7324949,45.6376044 23.6142264,46.0118274 C11.4959578,46.3860504 1.16621236,37.2933397 0,25.2255137" id="Shape" stroke="#322153" stroke-width="2.5" stroke-linecap="round" stroke-linejoin="round"></path>
            <path d="M12.4814496,37.5566492 C11.076465,38.3678175 9.27991823,37.8864342 8.46875,36.4814496 C7.65758177,35.076465 8.13896504,33.2799182 9.54394962,32.46875 C10.9489342,31.6575818 12.745481,32.138965 13.5566492,33.5439496 C14.3678175,34.9489342 13.8864342,36.745481 12.4814496,37.5566492 Z" id="Oval" fill="#3399FF" fill-rule="nonzero"></path>
            <path d="M18.4814496,29.5566492 C17.076465,30.3678175 15.2799182,29.8864342 14.46875,28.4814496 C13.6575818,27.076465 14.138965,25.2799182 15.5439496,24.46875 C16.9489342,23.6575818 18.745481,24.138965 19.5566492,25.5439496 C20.3678175,26.9489342 19.8864342,28.745481 18.4814496,29.5566492 Z" id="Oval-Copy-2" fill="#3399FF" fill-rule="nonzero"></path>
            <path d="M40.4814496,29.5566492 C39.076465,30.3678175 37.2799182,29.8864342 36.46875,28.4814496 C35.6575818,27.076465 36.138965,25.2799182 37.5439496,24.46875 C38.9489342,23.6575818 40.745481,24.138965 41.5566492,25.5439496 C42.3678175,26.9489342 41.8864342,28.745481 40.4814496,29.5566492 Z" id="Oval-Copy-3" fill="#3399FF" fill-rule="nonzero"></path>
            <path d="M35.4814496,23.5566492 C34.076465,24.3678175 32.2799182,23.8864342 31.46875,22.4814496 C30.6575818,21.076465 31.138965,19.2799182 32.5439496,18.46875 C33.9489342,17.6575818 35.745481,18.138965 36.5566492,19.5439496 C37.3678175,20.9489342 36.8864342,22.745481 35.4814496,23.5566492 Z" id="Oval-Copy-7" fill="#3399FF" fill-rule="nonzero"></path>
            <path d="M24.4814496,42.5566492 C23.076465,43.3678175 21.2799182,42.8864342 20.46875,41.4814496 C19.6575818,40.076465 20.138965,38.2799182 21.5439496,37.46875 C22.9489342,36.6575818 24.745481,37.138965 25.5566492,38.5439496 C26.3678175,39.9489342 25.8864342,41.745481 24.4814496,42.5566492 Z" id="Oval-Copy-4" fill="#3399FF" fill-rule="nonzero"></path>
            <path d="M36.4814496,38.5566492 C35.076465,39.3678175 33.2799182,38.8864342 32.46875,37.4814496 C31.6575818,36.076465 32.138965,34.2799182 33.5439496,33.46875 C34.9489342,32.6575818 36.745481,33.138965 37.5566492,34.5439496 C38.3678175,35.9489342 37.8864342,37.745481 36.4814496,38.5566492 Z" id="Oval-Copy-5" fill="#3399FF" fill-rule="nonzero"></path>
            <path d="M31.4814496,31.5566492 C30.076465,32.3678175 28.2799182,31.8864342 27.46875,30.4814496 C26.6575818,29.076465 27.138965,27.2799182 28.5439496,26.46875 C29.9489342,25.6575818 31.745481,26.138965 32.5566492,27.5439496 C33.3678175,28.9489342 32.8864342,30.745481 31.4814496,31.5566492 Z" id="Oval-Copy-6" fill="#3399FF" fill-rule="nonzero"></path>
            <path d="M26.4814496,23.5566492 C25.076465,24.3678175 23.2799182,23.8864342 22.46875,22.4814496 C21.6575818,21.076465 22.138965,19.2799182 23.5439496,18.46875 C24.9489342,17.6575818 26.745481,18.138965 27.5566492,19.5439496 C28.3678175,20.9489342 27.8864342,22.745481 26.4814496,23.5566492 Z" id="Oval-Copy-9" fill="#3399FF" fill-rule="nonzero"></path>
        </g>
    </g>
</svg>