<?xml version="1.0" encoding="UTF-8"?>
<svg width="51px" height="57px" viewBox="0 0 51 57" version="1.1" xmlns="http://www.w3.org/2000/svg" xmlns:xlink="http://www.w3.org/1999/xlink">
    <!-- Generator: Sketch 51.3 (57544) - http://www.bohemiancoding.com/sketch -->
    <title>Artboard 8 Copy 2</title>
    <desc>Created with Sketch.</desc>
    <defs></defs>
    <g id="Artboard-8-Copy-2" stroke="none" stroke-width="1" fill="none" fill-rule="evenodd">
        <g id="colored_deposit-79" transform="translate(2.000000, 7.000000)">
            <circle id="Oval-Copy" fill="#3399FF" fill-rule="nonzero" transform="translate(15.732051, 16.529993) rotate(-30.000000) translate(-15.732051, -16.529993) " cx="15.7320508" cy="16.5299926" r="2"></circle>
            <path d="M9.88,9.46666667 C10.0133333,6.72666667 8.63333333,2.99333333 6.54666667,0.666666667 C10.8533333,0.473333333 18.5933333,1.33333333 21.98,3.33333333" id="Shape" stroke="#322153" stroke-width="2.5" stroke-linecap="round" stroke-linejoin="round"></path>
            <polyline id="Shape" stroke="#322153" stroke-width="2.5" stroke-linecap="round" stroke-linejoin="round" points="18.6666667 41.3333333 18.6666667 43.3333333 12 43.3333333 12 38.46"></polyline>
            <polyline id="Shape" stroke="#322153" stroke-width="2.5" stroke-linecap="round" stroke-linejoin="round" points="18.7533333 41.3333333 28.6666667 41.3333333 28.6666667 43.3333333 35.3333333 43.3333333 35.3333333 38.7933333 36.06 38.36"></polyline>
            <path d="M5.14,28 L1.33333333,28 C0.596953667,28 0,27.4030463 0,26.6666667 L0,18.6666667 C0,17.930287 0.596953667,17.3333333 1.33333333,17.3333333 L5.33333333,17.3333333" id="Shape" stroke="#322153" stroke-width="2.5" stroke-linecap="round" stroke-linejoin="round"></path>
            <path d="M12,38.3466667 C11.3497409,37.8260425 10.7329613,37.264929 10.1533333,36.6666667 C7.71019001,34.2991061 5.97429228,31.298219 5.14,28" id="Shape" stroke="#322153" stroke-width="2.5" stroke-linecap="round" stroke-linejoin="round"></path>
            <path d="M22,3.39333333 C22.6666667,3.33333333 23.6466667,3.25333333 24.2533333,3.25333333 C29.4850241,3.24093983 34.5067814,5.3100817 38.2111549,9.00445016 C41.9155284,12.6988186 43.9982442,17.7149615 44,22.9466667 C44,29.3866667 40.76,34.8066667 36,38.4" id="Shape" stroke="#322153" stroke-width="2.5" stroke-linecap="round" stroke-linejoin="round"></path>
            <path d="M5.48,17.08 C6.8815715,12.6074741 9.82831605,8.77930557 13.7933333,6.28" id="Shape" stroke="#322153" stroke-width="2.5" stroke-linecap="round" stroke-linejoin="round"></path>
            <path d="M47.3333333,23.3333333 L47.3333333,20" id="Shape" stroke="#322153" stroke-width="2.5" stroke-linecap="round" stroke-linejoin="round"></path>
            <path d="M26.6666667,8.74 C32.7747162,9.75869039 37.5551684,14.5552293 38.5533333,20.6666667" id="Shape" stroke="#3399FF" stroke-width="2.5" stroke-linecap="round" stroke-linejoin="round"></path>
        </g>
    </g>
</svg>